Coordinates
version=1
nRows=8
nColumns=42
inDegrees=yes

Units are S.I. units (second, meters, Newtons, ...)
If the header above contains a line with 'inDegrees', this indicates whether rotational values are in degrees (yes) or radians (no).

endheader
time	pelvis_tilt	pelvis_list	pelvis_rotation	pelvis_tx	pelvis_ty	pelvis_tz	hip_flexion_r	hip_adduction_r	hip_rotation_r	knee_angle_r	knee_adduction_r	knee_angle_r_beta	ankle_angle_r	subtalar_angle_r	mtp_angle_r	hip_flexion_l	hip_adduction_l	hip_rotation_l	knee_angle_l	knee_adduction_l	knee_angle_l_beta	ankle_angle_l	subtalar_angle_l	mtp_angle_l	lumbar_extension	lumbar_bending	lumbar_rotation	arm_flex_r	arm_add_r	arm_rot_r	elbow_flex_r	pro_sup_r	wrist_flex_r	wrist_dev_r	arm_flex_l	arm_add_l	arm_rot_l	elbow_flex_l	pro_sup_l	wrist_flex_l	wrist_dev_l
      6.50000000	      1.96679242	     -9.89027348	    -13.76358989	     -0.30349073	      0.84808539	      0.28244950	     -2.45934934	      5.90917273	    -17.50674039	     20.56096149	     -2.76280268	      0.35885648	     15.49053479	     22.16154167	     -7.50009230	     14.08003601	    -17.96231209	    -28.52812944	     33.59377715	     -5.25702538	      0.58632202	     17.11749014	     26.65431696	     -7.50009230	    -26.17250230	      8.47306002	      3.25505422	    -10.69940127	     -3.60697809	    -11.24888671	    106.78026511	     90.00000001	      0.00000000	      0.00000000	      0.11747799	     -8.43167015	    -16.51236996	     48.44168669	     90.00000001	      0.00000000	      0.00000000
      6.51000000	      1.70238389	    -10.02348752	    -14.02039909	     -0.30101274	      0.84948811	      0.28053499	     -2.21326226	      5.98059459	    -17.61974413	     20.67474990	     -2.85629543	      0.36084246	     15.22518521	     22.03248037	     -7.50009190	     13.69669532	    -18.06802146	    -28.90243924	     33.02476401	     -4.90330291	      0.57639087	     17.15356499	     26.68142879	     -7.50009190	    -25.94661507	      8.67486692	      3.17561239	    -10.69852189	     -3.49160078	    -11.12698217	    107.04969744	     90.00000001	      0.00000000	      0.00000000	      0.04325328	     -8.53090180	    -16.53386357	     48.45835592	     90.00000001	      0.00000000	      0.00000000
      6.52000000	      2.23164804	     -9.88875356	    -14.82329286	     -0.29829757	      0.85210961	      0.27909642	     -2.65069730	      5.44794608	    -17.15387467	     21.05349490	     -2.95750792	      0.36745281	     13.89083038	     21.41638750	     -7.50008931	     11.79488082	    -17.62445687	    -30.46651925	     31.51648332	     -4.66334310	      0.55006640	     16.66979305	     27.85920574	     -7.50008931	    -26.54121686	      8.13817264	      3.71592740	    -10.76540562	     -3.53932291	    -10.86897947	    107.32363488	     90.00000001	      0.00000000	      0.00000000	      0.12098927	     -8.60525563	    -16.57353367	     48.58872389	     90.00000001	      0.00000000	      0.00000000
      6.53000000	      1.97469354	    -10.05177209	    -15.11231793	     -0.29578681	      0.85342798	      0.27726006	     -2.36085922	      5.55971177	    -17.21954135	     21.25643665	     -3.14035159	      0.37099481	     13.53996257	     21.27884908	     -7.50008881	     11.33294456	    -17.71556759	    -30.87685764	     30.80918678	     -4.31215766	      0.53772175	     16.69320863	     27.97536384	     -7.50008881	    -26.30316805	      8.37182239	      3.72603837	    -10.78476375	     -3.47769673	    -10.74304255	    107.61703940	     90.00000001	      0.00000000	      0.00000000	      0.00974695	     -8.69637129	    -16.60023969	     48.62723372	     90.00000001	      0.00000000	      0.00000000
      6.54000000	      2.45570002	     -9.94462947	    -15.75956433	     -0.29320594	      0.85581714	      0.27571107	     -2.73515189	      5.09139189	    -16.65656119	     21.61221579	     -3.20152615	      0.37720432	     12.43394906	     20.62981551	     -7.50008592	      9.62786014	    -17.25296347	    -32.39258181	     29.37270265	     -4.07744152	      0.51265037	     16.11991101	     29.33094526	     -7.50008592	    -26.84516232	      7.92888909	      4.13884242	    -10.83160640	     -3.49026068	    -10.56509404	    107.85448440	     90.00000001	      0.00000000	      0.00000000	      0.11567091	     -8.79755701	    -16.62400036	     48.82118721	     90.00000001	      0.00000000	      0.00000000
      6.55000000	      2.55196540	     -9.97615088	    -16.21653675	     -0.29060736	      0.85749179	      0.27395058	     -2.71894838	      4.92398385	    -16.28810321	     21.97573565	     -3.35068755	      0.38354894	     11.66903145	     20.17038833	     -7.50008325	      8.59260883	    -17.05702711	    -33.30549129	     28.35904089	     -3.73282423	      0.49495864	     15.83212558	     30.04472075	     -7.50008325	    -26.95544596	      7.87127010	      4.37150414	    -10.88413118	     -3.52558513	    -10.46501031	    108.07317362	     90.00000001	      0.00000000	      0.00000000	      0.07769135	     -8.83661593	    -16.63078476	     48.96869302	     90.00000001	      0.00000000	      0.00000000
      6.56000000	      2.34947649	    -10.12398958	    -16.42650963	     -0.28819652	      0.85860732	      0.27215899	     -2.42878885	      5.04565506	    -16.21776939	     22.25999431	     -3.57675847	      0.38851019	     11.31666898	     20.03714070	     -7.50008274	      8.15419943	    -17.08680906	    -33.67393892	     27.70378689	     -3.39490197	      0.48352230	     15.83951969	     30.11595746	     -7.50008274	    -26.76793244	      8.10985567	      4.34391774	    -10.86739573	     -3.42835155	    -10.37321663	    108.32104224	     90.00000001	      0.00000000	      0.00000000	      0.00058784	     -8.97014603	    -16.66549347	     49.02980884	     90.00000001	      0.00000000	      0.00000000
      6.57000000	      2.64513523	    -10.01387790	    -16.95175858	     -0.28587227	      0.86036320	      0.27053675	     -2.49727408	      4.65229762	    -15.60833938	     22.74992374	     -3.66940809	      0.39706107	     10.40305664	     19.39079322	     -7.50008102	      6.86432629	    -16.62132594	    -34.61772637	     26.50631271	     -2.94013253	      0.46262243	     15.31546716	     30.70005460	     -7.50008102	    -27.10653310	      7.78394881	      4.66668448	    -10.86337443	     -3.38105541	    -10.27788361	    108.47777186	     90.00000001	      0.00000000	      0.00000000	      0.09631722	     -9.09121495	    -16.69509749	     49.29057684	     90.00000001	      0.00000000	      0.00000000
